HIERARCHY
ROOT Hips
{
	OFFSET 0.000000 89.005402 0.000000
	CHANNELS 6 Xposition Yposition Zposition Xrotation Yrotation Zrotation
	JOINT Spine
	{
		OFFSET 0.116900 10.681000 0.373400
		CHANNELS 3 Xrotation Yrotation Zrotation
		JOINT Spine1
		{
			OFFSET 0.000000 13.840401 0.053500
			CHANNELS 3 Xrotation Yrotation Zrotation
			JOINT Spine2
			{
				OFFSET 0.000000 14.712700 -0.366200
				CHANNELS 3 Xrotation Yrotation Zrotation
				JOINT Neck
				{
					OFFSET 0.000000 35.415497 -3.314200
					CHANNELS 3 Xrotation Yrotation Zrotation
					JOINT Head
					{
						OFFSET 0.000000 16.899200 1.218300
						CHANNELS 3 Xrotation Yrotation Zrotation
						JOINT HeadTop_End
						{
							OFFSET 0.000000 22.206207 2.192500
							CHANNELS 3 Xrotation Yrotation Zrotation
							End Site
							{
								OFFSET 0.000000 22.314178 0.000000
							}
						}
					}
				}
				JOINT LeftShoulder
				{
					OFFSET 12.896400 26.716293 -4.548400
					CHANNELS 3 Xrotation Yrotation Zrotation
					JOINT LeftArm
					{
						OFFSET 19.027000 -4.857010 -1.718400
						CHANNELS 3 Xrotation Yrotation Zrotation
						JOINT LeftForeArm
						{
							OFFSET 24.179897 0.000000 0.000000
							CHANNELS 3 Xrotation Yrotation Zrotation
							JOINT LeftHand
							{
								OFFSET 27.156403 0.000000 0.000000
								CHANNELS 3 Xrotation Yrotation Zrotation
								JOINT LeftHandIndex1
								{
									OFFSET 16.441200 0.000000 0.000000
									CHANNELS 3 Xrotation Yrotation Zrotation
									JOINT LeftHandIndex2
									{
										OFFSET 4.821899 0.000000 0.000000
										CHANNELS 3 Xrotation Yrotation Zrotation
										JOINT LeftHandIndex3
										{
											OFFSET 6.386497 0.000000 0.000000
											CHANNELS 3 Xrotation Yrotation Zrotation
											JOINT LeftHandIndex4
											{
												OFFSET 5.188988 0.000000 0.000000
												CHANNELS 3 Xrotation Yrotation Zrotation
												End Site
												{
													OFFSET -0.178703 5.185913 0.000177
												}
											}
										}
									}
								}
								JOINT LeftHandThumb1
								{
									OFFSET 6.534897 -5.032593 5.900300
									CHANNELS 3 Xrotation Yrotation Zrotation
									JOINT LeftHandThumb2
									{
										OFFSET 3.818176 -2.204422 2.204423
										CHANNELS 3 Xrotation Yrotation Zrotation
										JOINT LeftHandThumb3
										{
											OFFSET 3.252098 -1.877594 1.877601
											CHANNELS 3 Xrotation Yrotation Zrotation
											JOINT LeftHandThumb4
											{
												OFFSET 5.251778 -3.032120 3.032117
												CHANNELS 3 Xrotation Yrotation Zrotation
												End Site
												{
													OFFSET 0.000023 6.780014 0.000000
												}
											}
										}
									}
								}
							}
						}
					}
				}
				JOINT RightShoulder
				{
					OFFSET -12.896300 26.716293 -4.548400
					CHANNELS 3 Xrotation Yrotation Zrotation
					JOINT RightArm
					{
						OFFSET -19.027000 -4.857010 -1.718400
						CHANNELS 3 Xrotation Yrotation Zrotation
						JOINT RightForeArm
						{
							OFFSET -24.179897 0.000000 0.000000
							CHANNELS 3 Xrotation Yrotation Zrotation
							JOINT RightHand
							{
								OFFSET -27.156403 0.000000 0.000000
								CHANNELS 3 Xrotation Yrotation Zrotation
								JOINT RightHandThumb1
								{
									OFFSET -6.591202 -4.852203 5.988100
									CHANNELS 3 Xrotation Yrotation Zrotation
									JOINT RightHandThumb2
									{
										OFFSET -3.818176 -2.204422 2.204423
										CHANNELS 3 Xrotation Yrotation Zrotation
										JOINT RightHandThumb3
										{
											OFFSET -3.252098 -1.877594 1.877601
											CHANNELS 3 Xrotation Yrotation Zrotation
											JOINT RightHandThumb4
											{
												OFFSET -5.251778 -3.032120 3.032117
												CHANNELS 3 Xrotation Yrotation Zrotation
												End Site
												{
													OFFSET -0.000023 6.780014 0.000000
												}
											}
										}
									}
								}
								JOINT RightHandIndex1
								{
									OFFSET -16.029404 0.000000 0.000000
									CHANNELS 3 Xrotation Yrotation Zrotation
									JOINT RightHandIndex2
									{
										OFFSET -5.213303 0.000000 0.000000
										CHANNELS 3 Xrotation Yrotation Zrotation
										JOINT RightHandIndex3
										{
											OFFSET -6.386528 0.000000 0.000000
											CHANNELS 3 Xrotation Yrotation Zrotation
											JOINT RightHandIndex4
											{
												OFFSET -5.189026 0.000000 0.000000
												CHANNELS 3 Xrotation Yrotation Zrotation
												End Site
												{
													OFFSET 0.236702 5.183624 0.001972
												}
											}
										}
									}
								}
							}
						}
					}
				}
			}
		}
	}
	JOINT LeftUpLeg
	{
		OFFSET 14.073000 -7.904099 -1.463000
		CHANNELS 3 Xrotation Yrotation Zrotation
		JOINT LeftLeg
		{
			OFFSET -0.109806 -34.073280 4.093200
			CHANNELS 3 Xrotation Yrotation Zrotation
			JOINT LeftFoot
			{
				OFFSET 0.109806 -29.899420 -6.319000
				CHANNELS 3 Xrotation Yrotation Zrotation
				JOINT LeftToeBase
				{
					OFFSET 1.551100 -14.988700 20.535801
					CHANNELS 3 Xrotation Yrotation Zrotation
					JOINT LeftToe_End
					{
						OFFSET 0.221200 0.570800 13.248301
						CHANNELS 3 Xrotation Yrotation Zrotation
						End Site
						{
							OFFSET 0.000000 13.262435 0.000000
						}
					}
				}
			}
		}
	}
	JOINT RightUpLeg
	{
		OFFSET -13.839300 -7.904099 -1.463000
		CHANNELS 3 Xrotation Yrotation Zrotation
		JOINT RightLeg
		{
			OFFSET 0.109694 -34.073219 4.093300
			CHANNELS 3 Xrotation Yrotation Zrotation
			JOINT RightFoot
			{
				OFFSET -0.109694 -29.899384 -6.319200
				CHANNELS 3 Xrotation Yrotation Zrotation
				JOINT RightToeBase
				{
					OFFSET -1.551100 -14.988700 20.535801
					CHANNELS 3 Xrotation Yrotation Zrotation
					JOINT RightToe_End
					{
						OFFSET -0.221200 0.570900 13.248299
						CHANNELS 3 Xrotation Yrotation Zrotation
						End Site
						{
							OFFSET 0.000000 13.262440 0.000000
						}
					}
				}
			}
		}
	}
}
MOTION
Frames: 7
Frame Time: 0.033333
-0.188355 88.274620 0.575709 1.894442 1.303552 -0.217182 2.658733 0.640570 -1.801935 -0.042028 1.064922 -0.608697 -0.043492 1.424097 1.469670 9.276532 0.078358 4.934708 -0.000256 -4.553829 -3.241302 -0.000000 -0.000000 -0.000000 -4.815049 -10.816552 -12.249617 15.698326 -25.515838 -67.973845 0.000004 -10.112560 0.000003 -13.263236 4.590889 -0.058890 0.570720 4.939530 -16.092429 0.151596 1.325436 -13.048802 0.011683 0.370264 -3.615582 -0.000005 0.000001 0.000004 -5.459441 4.941404 11.294195 12.140934 23.904489 0.504375 -17.523393 -14.006846 4.863482 -0.000001 0.000000 0.000003 -2.623425 1.810784 10.737967 17.055614 40.482046 63.767787 -0.000009 10.990083 0.000014 -17.636120 2.200627 -1.259452 -7.137201 2.167737 -17.160480 11.861178 -16.808433 5.655451 -16.486456 11.747214 -16.431010 0.000002 -0.000001 -0.000002 0.896121 -5.184241 23.741220 0.327634 -1.717555 21.598194 0.137075 -1.122739 13.920560 -0.000000 -0.000002 -0.000001 -7.228752 9.718827 0.895093 7.207546 -0.907811 0.691835 -1.924570 6.093716 -0.488316 -0.000968 0.000007 0.000000 -0.000000 0.000002 0.000000 -8.088962 1.373128 0.686056 6.756432 -4.676448 -0.113867 -0.539216 2.760505 -0.199198 -0.131480 0.000000 0.000000 0.000000 0.000000 -0.000000 
-0.151523 88.257561 0.652321 1.740568 1.148528 -0.322724 2.349492 0.674079 -1.708327 -0.160028 1.069282 -0.582079 -0.161765 1.430413 1.494810 8.914782 0.149824 4.851429 -1.619533 -4.558690 -2.921106 0.000001 -0.000000 0.000000 -4.809970 -10.741355 -12.206485 15.840897 -25.904580 -68.073497 0.000001 -10.024817 -0.000002 -13.220491 4.693712 -0.176321 0.530838 4.855288 -15.192890 0.131540 1.235760 -12.151672 0.006610 0.278535 -2.719162 -0.000002 -0.000000 0.000001 -5.481497 5.003771 11.586805 11.986403 22.970356 0.444858 -18.109150 -15.745784 4.241094 -0.000001 -0.000001 -0.000003 -2.608286 1.707720 10.737582 16.979200 40.392909 63.764276 -0.000006 10.874064 0.000010 -17.433860 2.134674 -1.251329 -7.141619 2.226030 -17.142578 11.692100 -16.183011 5.682003 -16.556131 12.377609 -16.271987 0.000001 -0.000001 0.000001 0.875765 -5.180804 22.877251 0.302349 -1.652262 20.737909 0.120752 -1.054742 13.061894 0.000001 0.000001 0.000001 -7.153485 9.810033 1.027089 7.597497 -0.850356 0.697360 -2.258544 6.099938 -0.488333 -0.000968 0.000005 0.000000 -0.000000 -0.000000 -0.000000 -7.846106 1.358491 0.784838 6.708534 -4.597885 -0.051812 -0.581138 2.751862 -0.246930 -0.127003 -0.000000 -0.000000 0.000000 0.000000 -0.000000 
-0.108928 88.239525 0.701951 1.618839 1.045858 -0.394058 2.033520 0.701020 -1.660831 -0.271447 1.071236 -0.562873 -0.273415 1.432158 1.512735 8.608001 0.236906 4.745898 -3.098936 -4.360793 -2.578137 0.000001 0.000000 -0.000000 -4.805232 -10.693926 -12.155972 15.973693 -26.319017 -68.156846 0.000002 -9.973893 0.000023 -13.133956 4.843287 -0.258181 0.498525 4.784424 -14.441257 0.115867 1.160588 -11.401979 0.003468 0.201833 -1.969993 0.000001 -0.000002 0.000002 -5.501857 5.060453 11.851176 11.847052 22.128075 0.389162 -18.658793 -17.308338 3.659130 -0.000001 0.000000 0.000002 -2.582516 1.623601 10.842161 17.019033 40.236173 63.698317 -0.000002 10.802083 -0.000023 -17.227457 2.070898 -1.256645 -7.144335 2.274660 -17.130236 11.533164 -15.594543 5.708642 -16.623487 12.970737 -16.121214 0.000001 -0.000001 -0.000001 0.855679 -5.177023 22.064062 0.279439 -1.590474 19.928289 0.106330 -0.990529 12.253791 0.000001 0.000001 -0.000002 -7.102193 9.855440 1.077013 7.909381 -0.791353 0.734366 -2.515537 6.107139 -0.481679 -0.000968 0.000005 0.000000 -0.000000 -0.000000 -0.000000 -7.690377 1.340194 0.826088 6.738427 -4.545207 0.009154 -0.644433 2.744877 -0.270521 -0.122528 -0.000000 -0.000000 0.000000 -0.000000 0.000000 
-0.062623 88.231377 0.734167 1.507969 0.985606 -0.445430 1.725559 0.698069 -1.646643 -0.379423 1.072613 -0.552654 -0.381482 1.431940 1.522215 8.378246 0.320998 4.640749 -4.473248 -4.139116 -2.233726 0.000000 -0.000000 0.000000 -4.800835 -10.668911 -12.100772 16.095689 -26.749176 -68.225291 -0.000002 -9.952157 -0.000002 -12.940802 5.032391 -0.276329 0.474369 4.729766 -13.864554 0.104505 1.102763 -10.826737 0.001735 0.142959 -1.395138 0.000000 0.000001 -0.000001 -5.520829 5.112252 12.085834 11.724278 21.386393 0.338581 -19.160093 -18.678139 3.129948 -0.000000 -0.000000 -0.000001 -2.548989 1.551652 11.020230 17.153467 40.013318 63.645588 -0.000002 10.785988 0.000010 -17.030044 1.998219 -1.245121 -7.146700 2.311570 -17.120779 11.386538 -15.051085 5.734667 -16.687264 13.518351 -15.981044 -0.000001 0.000003 0.000001 0.836361 -5.173053 21.312979 0.259056 -1.533109 19.180587 0.093814 -0.931061 11.507498 0.000001 -0.000000 -0.000001 -7.025869 9.893114 1.097219 8.095826 -0.774364 0.762682 -2.679580 6.111004 -0.464707 -0.000968 0.000005 0.000000 -0.000000 -0.000000 -0.000000 -7.535959 1.286466 0.810398 6.741141 -4.501377 0.084252 -0.706681 2.745509 -0.277742 -0.076557 0.000000 -0.000000 -0.000000 -0.000000 -0.000000 
-0.014841 88.229591 0.758436 1.396652 0.947414 -0.488259 1.444277 0.693113 -1.628492 -0.480149 1.075819 -0.549088 -0.482235 1.433481 1.525715 8.215012 0.376755 4.548922 -5.579776 -4.128345 -2.015885 -0.000000 -0.000000 -0.000000 -4.796757 -10.662753 -12.042579 16.206082 -27.183868 -68.281510 0.000005 -9.953226 -0.000003 -12.698543 5.247056 -0.307960 0.459546 4.695431 -13.503777 0.097695 1.066532 -10.466871 0.000951 0.106103 -1.035428 -0.000000 -0.000000 0.000000 -5.540714 5.160713 12.290002 11.619606 20.754438 0.294279 -19.599062 -19.836382 2.667718 0.000001 -0.000001 -0.000001 -2.524035 1.473912 11.122894 17.308167 39.767520 63.698235 -0.000001 10.805913 -0.000013 -16.851641 1.916965 -1.200932 -7.148365 2.334144 -17.114820 11.254355 -14.560877 5.759312 -16.746123 14.012299 -15.853711 0.000002 0.000001 0.000000 0.818289 -5.169053 20.635282 0.241302 -1.481129 18.506037 0.083189 -0.877277 10.834208 0.000002 -0.000000 -0.000001 -6.928550 9.934956 1.139028 8.213924 -0.775704 0.760337 -2.794240 6.110726 -0.450776 -0.000968 0.000005 0.000000 -0.000000 -0.000000 -0.000000 -7.375692 1.210605 0.758350 6.720897 -4.378560 0.175547 -0.767756 2.759164 -0.281959 0.009867 0.000000 -0.000000 0.000000 -0.000000 -0.000000 
0.034157 88.231354 0.777955 1.288499 0.923777 -0.528563 1.192471 0.722224 -1.580104 -0.566772 1.084836 -0.546283 -0.568936 1.442124 1.527461 8.095626 0.399913 4.457870 -6.352696 -4.341752 -1.958034 -0.000000 -0.000000 -0.000000 -4.792935 -10.668949 -11.983468 16.303735 -27.611530 -68.328249 -0.000000 -9.969105 0.000009 -12.435189 5.441508 -0.492370 0.454224 4.682989 -13.373246 0.095290 1.053415 -10.336634 0.000733 0.092768 -0.905303 0.000001 0.000002 0.000001 -5.554024 5.193958 12.419252 11.554772 20.363456 0.266412 -19.876009 -20.548044 2.376576 -0.000000 -0.000000 -0.000000 -2.521025 1.402176 11.062169 17.435929 39.562119 63.879754 -0.000001 10.826467 0.000006 -16.712194 1.840418 -1.126250 -7.149573 2.342066 -17.112569 11.138751 -14.132006 5.781758 -16.798661 14.444347 -15.741662 -0.000000 -0.000002 0.000002 0.802007 -5.165214 20.042324 0.226302 -1.435499 17.915846 0.074414 -0.830087 10.245170 0.000001 -0.000000 -0.000000 -6.823235 9.974521 1.172472 8.296511 -0.790413 0.741367 -2.885839 6.109644 -0.416620 -0.000968 0.000005 0.000000 0.000000 -0.000000 -0.000000 -7.210188 1.149113 0.715928 6.652482 -4.234415 0.246747 -0.763895 2.770772 -0.280984 0.038271 -0.000001 0.000000 0.000000 -0.000000 -0.000000 
0.084148 88.233948 0.793463 1.188317 0.916357 -0.561199 0.970803 0.804362 -1.524008 -0.635819 1.107289 -0.544149 -0.638047 1.464620 1.528642 8.013916 0.405765 4.362164 -6.931923 -4.629425 -1.943694 -0.000000 -0.000000 0.000000 -4.789315 -10.683505 -11.925647 16.389263 -28.020754 -68.367304 -0.000004 -9.992054 0.000016 -12.078304 5.603208 -0.828763 0.454617 4.683893 -13.382795 0.095457 1.054384 -10.346163 0.000750 0.093738 -0.914846 -0.000000 -0.000000 -0.000002 -5.555263 5.198112 12.437940 11.544048 20.298837 0.261769 -19.926466 -20.676149 2.323560 -0.000000 -0.000000 -0.000002 -2.533756 1.361521 10.917118 17.552391 39.437563 64.131453 -0.000001 10.822033 0.000012 -16.618421 1.779292 -1.034030 -7.149067 2.335175 -17.114164 11.041876 -13.772567 5.801218 -16.843431 14.806315 -15.647272 0.000001 0.000000 -0.000000 0.788000 -5.161729 19.545438 0.214066 -1.397141 17.421313 0.067441 -0.790515 9.751561 -0.000000 -0.000001 -0.000001 -6.724593 10.016077 1.182091 8.360730 -0.836371 0.716692 -2.960972 6.107339 -0.359641 -0.000968 0.000005 0.000000 -0.000000 -0.000000 0.000000 -7.062084 1.107252 0.710571 6.640379 -4.278198 0.260341 -0.885059 2.769483 -0.260434 0.227104 0.000000 0.000000 0.000000 0.000000 -0.000000 
